<?xml version="1.0" encoding="UTF-8"?>
<svg id="Layer_2" data-name="Layer 2" xmlns="http://www.w3.org/2000/svg" viewBox="0 0 324.36 51.77">
  <defs>
    <style>
      .cls-1 {
        fill: #008080;
      }
    </style>
  </defs>
  <g id="Layer_1-2" data-name="Layer 1">
    <g>
      <path class="cls-1" d="M24.91,51.77c-4.66,0-8.87-.95-12.64-2.84-3.77-1.9-6.76-4.72-8.96-8.46-2.21-3.74-3.31-8.33-3.31-13.75,0-4.13.67-7.75,2.02-10.87,1.34-3.12,3.18-5.74,5.51-7.85,2.33-2.11,5.02-3.7,8.06-4.75,3.05-1.06,6.28-1.58,9.68-1.58,2.74,0,5.26.31,7.56.94,2.3.62,4.46,1.49,6.48,2.59l.29,8.86h-.72l-3.6-5.76c-.48-.91-1.01-1.74-1.58-2.48-.58-.74-1.3-1.31-2.16-1.69-.72-.33-1.43-.59-2.12-.76-.7-.17-1.57-.25-2.63-.25-2.78,0-5.32.74-7.6,2.23-2.28,1.49-4.1,3.95-5.47,7.38-1.37,3.43-2.05,8.12-2.05,14.08s.65,10.57,1.94,14c1.3,3.43,3.06,5.88,5.29,7.34,2.23,1.46,4.74,2.2,7.52,2.2,1.54,0,2.76-.11,3.67-.32.91-.22,1.82-.54,2.74-.97.91-.38,1.61-.95,2.09-1.69.48-.74.91-1.55,1.3-2.41l3.17-7.06h.72l-.22,10.3c-2.02,1.06-4.27,1.92-6.77,2.59-2.5.67-5.23,1.01-8.21,1.01Z"/>
      <path class="cls-1" d="M61.63,51.55c-3.65,0-6.82-.76-9.5-2.27-2.69-1.51-4.76-3.66-6.23-6.44-1.46-2.78-2.2-6.05-2.2-9.79s.78-6.98,2.34-9.72c1.56-2.74,3.7-4.85,6.41-6.34,2.71-1.49,5.77-2.23,9.18-2.23s6.46.73,9.14,2.2c2.69,1.46,4.81,3.56,6.37,6.3,1.56,2.74,2.34,6,2.34,9.79s-.73,7.07-2.2,9.83c-1.46,2.76-3.53,4.9-6.19,6.41s-5.82,2.27-9.47,2.27ZM61.63,50.11c1.68,0,3.02-.48,4.03-1.44,1.01-.96,1.74-2.66,2.2-5.11.46-2.45.68-5.9.68-10.37s-.23-7.99-.68-10.44c-.46-2.45-1.19-4.15-2.2-5.11-1.01-.96-2.35-1.44-4.03-1.44s-3.04.48-4.07,1.44c-1.03.96-1.78,2.66-2.23,5.11-.46,2.45-.68,5.93-.68,10.44s.23,7.92.68,10.37c.46,2.45,1.2,4.15,2.23,5.11,1.03.96,2.39,1.44,4.07,1.44Z"/>
      <path class="cls-1" d="M101.3,51.55c-3.65,0-6.82-.76-9.5-2.27-2.69-1.51-4.76-3.66-6.23-6.44-1.46-2.78-2.2-6.05-2.2-9.79s.78-6.98,2.34-9.72c1.56-2.74,3.7-4.85,6.41-6.34,2.71-1.49,5.77-2.23,9.18-2.23s6.46.73,9.14,2.2c2.69,1.46,4.81,3.56,6.37,6.3,1.56,2.74,2.34,6,2.34,9.79s-.73,7.07-2.2,9.83c-1.46,2.76-3.53,4.9-6.19,6.41s-5.82,2.27-9.47,2.27ZM101.3,50.11c1.68,0,3.02-.48,4.03-1.44,1.01-.96,1.74-2.66,2.2-5.11.46-2.45.68-5.9.68-10.37s-.23-7.99-.68-10.44c-.46-2.45-1.19-4.15-2.2-5.11-1.01-.96-2.35-1.44-4.03-1.44s-3.04.48-4.07,1.44c-1.03.96-1.78,2.66-2.23,5.11-.46,2.45-.68,5.93-.68,10.44s.23,7.92.68,10.37c.46,2.45,1.2,4.15,2.23,5.11,1.03.96,2.39,1.44,4.07,1.44Z"/>
      <path class="cls-1" d="M122.18,50.47v-.72l1.08-.36c1.63-.53,2.45-1.7,2.45-3.53V7.34c0-.96-.19-1.68-.58-2.16-.38-.48-1.06-.86-2.02-1.15l-.94-.22v-.72l13.18-3.1.86.65-.22,10.08v35.14c0,1.92.79,3.12,2.38,3.6l1.01.29v.72h-17.21ZM148.9,50.47l-12.82-18,13.32-12.31c.62-.58,1-1.19,1.12-1.84.12-.65-.3-1.12-1.26-1.4l-1.22-.36v-.72h10.73v.72l-2.16.58c-1.06.34-1.91.73-2.56,1.19-.65.46-1.43,1.09-2.34,1.91l-8.06,7.56,12.89,17.93c.77,1.06,1.49,1.87,2.16,2.45.67.58,1.54,1.06,2.59,1.44l.29.14v.72h-12.67Z"/>
      <path class="cls-1" d="M176.25,51.41l-12.17-.94v-.72l.72-.14c1.87-.43,2.81-1.63,2.81-3.6V7.49c0-1.01-.16-1.78-.47-2.3-.31-.53-.95-.89-1.91-1.08l-1.01-.29v-.72l12.82-3.1.86.65-.29,10.15v7.27c1.58-1.1,3.31-1.93,5.18-2.48,1.87-.55,3.77-.83,5.69-.83,2.74,0,5.16.64,7.27,1.91,2.11,1.27,3.78,3.24,5,5.9s1.84,6.08,1.84,10.26-.68,7.64-2.05,10.4c-1.37,2.76-3.19,4.84-5.47,6.23-2.28,1.39-4.79,2.09-7.52,2.09-1.78,0-3.56-.24-5.36-.72-1.8-.48-3.4-1.15-4.79-2.02l-1.15,2.59ZM183.96,49.1c1.54,0,2.88-.48,4.03-1.44,1.15-.96,2.06-2.6,2.74-4.93.67-2.33,1.01-5.53,1.01-9.61s-.31-7.22-.94-9.43c-.62-2.21-1.5-3.74-2.63-4.61-1.13-.86-2.48-1.3-4.07-1.3-2.26,0-4.34.62-6.26,1.87v27.65c.91.58,1.85,1.02,2.81,1.33.96.31,2.06.47,3.31.47Z"/>
      <path class="cls-1" d="M224.42,51.55c-3.65,0-6.82-.76-9.5-2.27-2.69-1.51-4.76-3.66-6.23-6.44-1.46-2.78-2.2-6.05-2.2-9.79s.78-6.98,2.34-9.72c1.56-2.74,3.7-4.85,6.41-6.34,2.71-1.49,5.77-2.23,9.18-2.23s6.46.73,9.14,2.2c2.69,1.46,4.81,3.56,6.37,6.3,1.56,2.74,2.34,6,2.34,9.79s-.73,7.07-2.2,9.83c-1.46,2.76-3.53,4.9-6.19,6.41s-5.82,2.27-9.47,2.27ZM224.42,50.11c1.68,0,3.02-.48,4.03-1.44,1.01-.96,1.74-2.66,2.2-5.11.46-2.45.68-5.9.68-10.37s-.23-7.99-.68-10.44c-.46-2.45-1.19-4.15-2.2-5.11-1.01-.96-2.35-1.44-4.03-1.44s-3.04.48-4.07,1.44c-1.03.96-1.78,2.66-2.23,5.11-.46,2.45-.68,5.93-.68,10.44s.23,7.92.68,10.37c.46,2.45,1.2,4.15,2.23,5.11,1.03.96,2.39,1.44,4.07,1.44Z"/>
      <path class="cls-1" d="M264.09,51.55c-3.65,0-6.82-.76-9.5-2.27-2.69-1.51-4.76-3.66-6.23-6.44-1.46-2.78-2.2-6.05-2.2-9.79s.78-6.98,2.34-9.72c1.56-2.74,3.7-4.85,6.41-6.34,2.71-1.49,5.77-2.23,9.18-2.23s6.46.73,9.14,2.2c2.69,1.46,4.81,3.56,6.37,6.3,1.56,2.74,2.34,6,2.34,9.79s-.73,7.07-2.2,9.83c-1.46,2.76-3.53,4.9-6.19,6.41s-5.82,2.27-9.47,2.27ZM264.09,50.11c1.68,0,3.02-.48,4.03-1.44,1.01-.96,1.74-2.66,2.2-5.11.46-2.45.68-5.9.68-10.37s-.23-7.99-.68-10.44c-.46-2.45-1.19-4.15-2.2-5.11-1.01-.96-2.35-1.44-4.03-1.44s-3.04.48-4.07,1.44c-1.03.96-1.78,2.66-2.23,5.11-.46,2.45-.68,5.93-.68,10.44s.23,7.92.68,10.37c.46,2.45,1.2,4.15,2.23,5.11,1.03.96,2.39,1.44,4.07,1.44Z"/>
      <path class="cls-1" d="M284.97,50.47v-.72l1.08-.36c1.63-.53,2.45-1.7,2.45-3.53V7.34c0-.96-.19-1.68-.58-2.16-.38-.48-1.06-.86-2.02-1.15l-.94-.22v-.72l13.18-3.1.86.65-.22,10.08v35.14c0,1.92.79,3.12,2.38,3.6l1.01.29v.72h-17.21ZM311.69,50.47l-12.82-18,13.32-12.31c.62-.58,1-1.19,1.12-1.84.12-.65-.3-1.12-1.26-1.4l-1.22-.36v-.72h10.73v.72l-2.16.58c-1.06.34-1.91.73-2.56,1.19-.65.46-1.43,1.09-2.34,1.91l-8.06,7.56,12.89,17.93c.77,1.06,1.49,1.87,2.16,2.45.67.58,1.54,1.06,2.59,1.44l.29.14v.72h-12.67Z"/>
    </g>
  </g>
</svg>
